<svg enable-background="new 0 0 24 24" viewBox="0 0 24 24" xmlns="http://www.w3.org/2000/svg"><g clip-rule="evenodd" fill-rule="evenodd"><path d="m4.027 18.962h16v-7.949h-16z" fill="#ff9b00"/><path d="m3.452 21.697h17.016c.524 0 .948-.425.948-.948v-1.978c0-.524-.425-.948-.948-.948h-17.016c-.524 0-.948.425-.948.948v1.978c0 .524.424.948.948.948zm8.575-12.697c-.789 0-1.428-.64-1.428-1.428 0-.789.64-1.428 1.428-1.428.789 0 1.428.64 1.428 1.428 0 .789-.639 1.428-1.428 1.428m9.042-1.831-8.156-4.361c-.554-.296-1.219-.296-1.773 0l-8.156 4.361c-.299.169-.484.485-.484.828v2.295c0 .53.429.959.959.959h17.135c.53 0 .959-.429.959-.959v-2.294c0-.343-.185-.66-.484-.829" fill="#ffbf00"/><path d="m14.404 17.451c0-1.544 1.256-2.802 2.802-2.802s2.802 1.257 2.802 2.802-1.256 2.802-2.802 2.802c-1.547-.002-2.8-1.256-2.802-2.802zm9.064 4.677-2.002-2.003c1.033-1.622 1.088-3.771-.097-5.547-.67-1.004-1.721-1.733-2.894-2.018-3.622-.878-6.821 2.15-6.245 5.734.312 1.938 1.803 3.554 3.706 4.038 1.47.374 2.841.072 3.946-.623l2.002 2.003c.384.384 1.006.384 1.39 0l.195-.195c.383-.384.383-1.006-.001-1.389z" fill="#4696fc"/></g></svg>