<svg enable-background="new 0 0 24 24" viewBox="0 0 24 24" xmlns="http://www.w3.org/2000/svg"><g clip-rule="evenodd" fill-rule="evenodd"><path d="m4.547 20.098v-16.196c0-.505.2-.991.562-1.343.362-.362.838-.562 1.343-.562h11.094c.505 0 .991.2 1.343.562.362.362.562.838.562 1.343v16.197c0 .505-.2.991-.562 1.343-.362.362-.838.562-1.343.562h-11.093c-.505 0-.991-.2-1.343-.562-.363-.362-.563-.839-.563-1.344z" fill="#cf6be5"/><path d="m10.571 7.713h2.858v-2.859h-2.858z" fill="#fff"/><path d="m24 16.144c0 3.232-2.62 5.853-5.853 5.853s-5.853-2.62-5.853-5.853 2.62-5.853 5.853-5.853 5.853 2.621 5.853 5.853" fill="#0074ed"/><path d="m18.604 12.157.869 1.797c.036.071.083.131.155.179.06.048.143.083.226.095l2.011.298c.405.06.571.559.274.845l-1.452 1.416s-.107.131-.131.202-.036.155-.012.238l.345 1.999c.012.095 0 .19-.036.274-.036.083-.095.155-.167.214-.071.06-.167.083-.262.095-.095 0-.19-.012-.262-.06l-1.797-.94c-.071-.036-.155-.06-.226-.06s-.155.024-.226.06l-1.797.952c-.083.048-.179.06-.262.06-.095 0-.179-.036-.262-.095-.071-.06-.131-.131-.167-.214s-.048-.179-.024-.274l.345-1.999c.012-.083 0-.167-.012-.238-.024-.071-.071-.143-.131-.202l-1.452-1.416c-.071-.06-.119-.143-.131-.238-.024-.095-.024-.19 0-.274.024-.083.083-.167.155-.226.071-.06.155-.095.25-.107l2.011-.298c.083 0 .155-.048.226-.083.06-.048.119-.107.155-.179l.905-1.821c.036-.083.107-.155.179-.202.071-.048.167-.071.262-.071s.179.024.262.071c.084.048.144.119.179.202z" fill="#fff"/></g></svg>