<svg enable-background="new 0 0 24 24" viewBox="0 0 24 24" xmlns="http://www.w3.org/2000/svg"><path d="m19.153 9.676h-14.306c-1.053 0-1.907-.854-1.907-1.907v-2.915c0-1.053.854-1.907 1.907-1.907h14.307c1.053 0 1.907.854 1.907 1.907v2.915c0 1.053-.854 1.907-1.908 1.907z" fill="#6b7682"/><path d="m17.074 21.054h-10.131c-.893 0-1.617-.724-1.617-1.617l.04-13.126h13.365l-.04 13.126c0 .893-.724 1.617-1.617 1.617z" fill="#00c777"/><path d="m5.333 5.503h13.339c.446 0 .808.362.808.808 0 .446-.362.808-.808.808h-13.339c-.446 0-.808-.362-.808-.808 0-.446.362-.808.808-.808z" fill="#4e5968"/><path d="m5.346 7.12h13.365v7.493h-13.365z" fill="#00a45b"/></svg>